<?xml version="1.0" ?><svg id="Icons" viewBox="0 0 128 128" xmlns="http://www.w3.org/2000/svg" xmlns:xlink="http://www.w3.org/1999/xlink"><defs><style>.cls-1{fill:url(#New_Gradient_Swatch_1);}.cls-2{fill:#0c3b79;}</style><linearGradient gradientUnits="userSpaceOnUse" id="New_Gradient_Swatch_1" x1="4" x2="124" y1="64" y2="64"><stop offset="0" stop-color="#67a3ff"/><stop offset="1" stop-color="#418cff"/></linearGradient></defs><rect class="cls-1" height="88" rx="17.14" width="120" x="4" y="20"/><path class="cls-2" d="M64.58,68.21a16.36,16.36,0,0,1-8.91-2.62L17.79,41.77a4.9,4.9,0,0,1-1.52-6.92,5.29,5.29,0,0,1,7.16-1.47L61.37,57.23a5.84,5.84,0,0,0,6.37,0l36.77-23.84a5.28,5.28,0,0,1,7.18,1.37,4.9,4.9,0,0,1-1.41,6.94L73.5,65.58A16.47,16.47,0,0,1,64.58,68.21Z"/></svg>